<?xml version="1.0" encoding="UTF-8"?>
<svg width="165px" height="30px" viewBox="0 0 165 30" version="1.1" xmlns="http://www.w3.org/2000/svg" xmlns:xlink="http://www.w3.org/1999/xlink">
    <defs>
        <polygon id="path-1" points="0 0 30.5643454 0 30.5643454 30 0 30"></polygon>
        <polygon id="path-3" points="0 0 7.88428739 0 7.88428739 10.574381 0 10.574381"></polygon>
    </defs>
    <g id="Page-1" stroke="none" stroke-width="1" fill="none" fill-rule="evenodd">
        <g id="Group-33">
            <g id="Group-3">
                <mask id="mask-2" fill="white">
                    <use xlink:href="#path-1"></use>
                </mask>
                <g id="Clip-2"></g>
                <path d="M30.5643454,14.9968257 C30.5643454,23.2696291 23.7087998,30 15.2826282,30 C6.85554559,30 0,23.2696291 0,14.9968257 C0,6.72849313 6.85554559,-8.94163794e-05 15.2826282,-8.94163794e-05 C23.7087998,-8.94163794e-05 30.5643454,6.72849313 30.5643454,14.9968257" id="Fill-1" fill="#00A8A9" mask="url(#mask-2)"></path>
            </g>
            <path d="M9.55540065,13.0408424 L9.55540065,19.3715221 C9.55540065,19.7023627 9.82962247,19.9724001 10.1676168,19.9724001 L20.3958175,19.9724001 C20.7347229,19.9724001 21.0089447,19.7023627 21.0089447,19.3715221 L21.0089447,13.0408424 L15.2821727,8.26064278 L9.55540065,13.0408424 Z M10.1676168,21.9976811 C8.69173856,21.9976811 7.49099317,20.8191733 7.49099317,19.3715221 L7.49099317,12.5731948 C7.49099317,12.2745441 7.62400442,11.9928825 7.85449651,11.8006372 L14.6134723,6.15935787 C14.8002347,6.00287921 15.037104,5.91703948 15.2821727,5.91703948 C15.5272414,5.91703948 15.7631997,6.00287921 15.9508731,6.15935787 L22.7089378,11.8006372 C22.9403409,11.9928825 23.0724412,12.2745441 23.0724412,12.5731948 L23.0724412,19.3715221 C23.0724412,20.8191733 21.8726068,21.9976811 20.3958175,21.9976811 L10.1676168,21.9976811 Z" id="Fill-4" fill="#FFFFFF"></path>
            <path d="M42.7406143,15.8656847 L41.5016054,15.8656847 C39.7123307,15.8656847 39.3196742,16.4254312 39.3196742,17.5064752 L39.3196742,17.5833733 C39.3196742,18.5293986 39.7524163,18.7797645 40.7345131,18.7797645 C41.4432991,18.7797645 42.1703057,18.5481761 42.7406143,18.2396895 L42.7406143,15.8656847 Z M44.9425882,20.6521435 L43.2708372,20.6521435 C43.0549217,20.6521435 42.8781807,20.4777815 42.8781807,20.2658647 L42.8781807,19.956484 C41.973522,20.4983473 41.0497315,20.8050455 40.1049872,20.8050455 C38.4742329,20.8050455 36.70409,20.1889666 36.70409,17.5833733 L36.70409,17.5064752 C36.70409,15.3068323 38.0806653,14.1676676 41.5016054,14.1676676 L42.7406143,14.1676676 L42.7406143,13.318212 C42.7406143,12.0645944 42.1703057,11.7552137 41.010557,11.7552137 C39.7524163,11.7552137 38.4541901,11.8321118 37.8055325,11.9099041 L37.7071406,11.9099041 C37.5103568,11.9099041 37.3527476,11.8526776 37.3527476,11.5817459 L37.3527476,10.3469057 C37.3527476,10.1349889 37.4711823,9.99907603 37.7271834,9.94095538 C38.5134074,9.78715921 39.6531134,9.63246888 41.010557,9.63246888 C43.8019712,9.63246888 45.3352447,10.8485316 45.3352447,13.318212 L45.3352447,20.2658647 C45.3352447,20.4777815 45.1585037,20.6521435 44.9425882,20.6521435 L44.9425882,20.6521435 Z" id="Fill-6" fill="#030100"></path>
            <path d="M52.5729698,20.6709209 C52.1010532,20.7487131 51.6683111,20.8050455 51.2355691,20.8050455 C49.0144634,20.8050455 48.1098047,20.3239853 48.1098047,17.7380637 L48.1098047,11.6783156 L46.2613127,11.4082782 C46.0453972,11.3698291 45.8686562,11.2339162 45.8686562,11.0219994 L45.8686562,10.1537664 C45.8686562,9.94095538 46.0453972,9.76838177 46.2613127,9.76838177 L48.1098047,9.76838177 L48.1098047,8.18571186 C48.1098047,7.97379504 48.2865457,7.83788214 48.5024612,7.7994331 L50.3318214,7.49094659 L50.4101705,7.49094659 C50.5869115,7.49094659 50.7244779,7.58751628 50.7244779,7.7797615 L50.7244779,9.76838177 L52.4937097,9.76838177 C52.7105363,9.76838177 52.8872772,9.94095538 52.8872772,10.1537664 L52.8872772,11.292931 C52.8872772,11.5048479 52.7105363,11.6783156 52.4937097,11.6783156 L50.7244779,11.6783156 L50.7244779,17.7380637 C50.7244779,18.7028664 50.7836952,18.8182135 51.4915702,18.8182135 L52.5337953,18.8182135 C52.7888854,18.8182135 52.9464946,18.9147832 52.9464946,19.1079226 L52.9464946,20.3239853 C52.9464946,20.5162306 52.8280599,20.6315777 52.5729698,20.6709209" id="Fill-8" fill="#030100"></path>
            <path d="M64.9809152,20.6517858 L63.0340313,20.6517858 C62.8181158,20.6517858 62.6413748,20.478318 62.6413748,20.265507 L62.6413748,14.3613435 L57.0567244,14.3613435 L57.0567244,20.265507 C57.0567244,20.478318 56.8799834,20.6517858 56.6640679,20.6517858 L54.7171841,20.6517858 C54.5012685,20.6517858 54.3245276,20.478318 54.3245276,20.265507 L54.3245276,6.68047653 C54.3245276,6.46855971 54.5012685,6.31386937 54.7171841,6.31386937 L56.6640679,6.31386937 C56.8799834,6.31386937 57.0567244,6.46855971 57.0567244,6.68047653 L57.0567244,12.0061161 L62.6413748,12.0061161 L62.6413748,6.68047653 C62.6413748,6.46855971 62.8181158,6.31386937 63.0340313,6.31386937 L64.9809152,6.31386937 C65.1968307,6.31386937 65.3744827,6.46855971 65.3744827,6.68047653 L65.3744827,20.265507 C65.3744827,20.478318 65.1968307,20.6517858 64.9809152,20.6517858" id="Fill-10" fill="#030100"></path>
            <path d="M74.0085527,14.4379733 C74.0085527,12.8553034 73.280635,11.8323801 71.9040596,11.8323801 C70.5283953,11.8323801 69.8004776,12.8553034 69.8004776,14.4379733 L69.8004776,16.0009717 C69.8004776,17.5836416 70.5283953,18.6056708 71.9040596,18.6056708 C73.280635,18.6056708 74.0085527,17.5836416 74.0085527,16.0009717 L74.0085527,14.4379733 Z M71.9040596,20.8053137 C68.8174698,20.8053137 67.2058472,18.7603611 67.2058472,16.0009717 L67.2058472,14.4379733 C67.2058472,11.6785839 68.8174698,9.63273712 71.9040596,9.63273712 C74.9915605,9.63273712 76.6031831,11.6785839 76.6031831,14.4379733 L76.6031831,16.0009717 C76.6031831,18.7603611 74.9915605,20.8053137 71.9040596,20.8053137 L71.9040596,20.8053137 Z" id="Fill-12" fill="#030100"></path>
            <path d="M91.9614273,20.6517858 L90.1521099,20.6517858 C89.9361944,20.6517858 89.7594534,20.4586464 89.7594534,20.2467296 L89.7594534,13.6853557 C89.7594534,12.1992555 89.445146,11.8138709 88.3437035,11.8138709 C87.9701788,11.8138709 87.2231293,11.929218 86.5152543,12.2958251 C86.5735606,12.720553 86.5936034,13.2034014 86.5936034,13.6853557 L86.5936034,20.2467296 C86.5936034,20.4586464 86.4168624,20.6517858 86.2000359,20.6517858 L84.3916295,20.6517858 C84.175714,20.6517858 83.998973,20.4586464 83.998973,20.2467296 L83.998973,13.6853557 C83.998973,12.1992555 83.7429719,11.8138709 82.6415294,11.8138709 C82.2288301,11.8138709 81.6384788,12.0266818 80.8331231,12.4505155 L80.8331231,20.2467296 C80.8331231,20.4586464 80.6563821,20.6517858 80.4404666,20.6517858 L78.6311491,20.6517858 C78.4143226,20.6517858 78.2375816,20.4586464 78.2375816,20.2467296 L78.2375816,10.1543029 C78.2375816,9.94059772 78.4143226,9.76802411 78.6311491,9.76802411 L80.3411636,9.76802411 C80.5570792,9.76802411 80.7347312,9.94059772 80.7347312,10.1543029 L80.7347312,10.5593591 C81.5601298,10.0380616 82.3864394,9.63300537 83.5461881,9.63300537 C84.6667624,9.63300537 85.3946801,9.96116349 85.8465539,10.5003443 C86.8496045,9.96116349 87.7342204,9.63300537 89.090753,9.63300537 C91.7646435,9.63300537 92.3540838,11.4284863 92.3540838,13.6853557 L92.3540838,20.2467296 C92.3540838,20.4586464 92.1773428,20.6517858 91.9614273,20.6517858" id="Fill-14" fill="#030100"></path>
            <path d="M100.773331,14.205759 C100.773331,12.7008813 99.9278901,11.8326483 98.708924,11.8326483 C97.4899579,11.8326483 96.6044309,12.6821039 96.6044309,14.205759 L96.6044309,14.2844454 L100.773331,14.2844454 L100.773331,14.205759 Z M102.994437,16.0978096 L96.5852992,16.0978096 L96.5852992,16.1559302 C96.5852992,17.2745291 97.0572158,18.605939 98.9448823,18.605939 C100.379764,18.605939 101.736297,18.4905919 102.561695,18.4136938 L102.621823,18.4136938 C102.818607,18.4136938 102.975305,18.5093693 102.975305,18.7025087 L102.975305,19.9766921 C102.975305,20.2851786 102.916088,20.4193032 102.561695,20.478318 C101.284423,20.7099064 100.51733,20.805582 98.7480986,20.805582 C96.782083,20.805582 93.9897577,19.7647753 93.9897577,15.9627909 L93.9897577,14.5348113 C93.9897577,11.5241618 95.7006833,9.63300537 98.708924,9.63300537 C101.736297,9.63300537 103.388005,11.6582864 103.388005,14.5348113 L103.388005,15.6149611 C103.388005,15.9243418 103.270481,16.0978096 102.994437,16.0978096 L102.994437,16.0978096 Z" id="Fill-16" fill="#030100"></path>
            <path d="M115.718239,13.550784 L109.13236,13.550784 L109.13236,20.2847316 C109.13236,20.4778709 108.993882,20.6513387 108.797098,20.6513387 L108.601226,20.6513387 C108.404442,20.6513387 108.265965,20.4778709 108.265965,20.2847316 L108.265965,8.47461618 C108.265965,6.85439139 109.151491,6.31342229 110.64559,6.31342229 L115.718239,6.31342229 C115.934154,6.31342229 116.091763,6.44844103 116.091763,6.6415804 L116.091763,6.79537658 C116.091763,6.98941012 115.934154,7.10475725 115.718239,7.10475725 L110.64559,7.10475725 C109.701757,7.10475725 109.13236,7.27822503 109.13236,8.47461618 L109.13236,12.7201059 L115.718239,12.7201059 C115.934154,12.7201059 116.091763,12.8363472 116.091763,13.0294865 L116.091763,13.2217318 C116.091763,13.4157653 115.934154,13.550784 115.718239,13.550784" id="Fill-18" fill="#030100"></path>
            <path d="M118.357657,20.7670435 L118.238639,20.7670435 C118.040885,20.7670435 117.863273,20.5935757 117.863273,20.4013305 L117.863273,10.6558393 C117.863273,10.4627 118.040885,10.288338 118.238639,10.288338 L118.357657,10.288338 C118.555411,10.288338 118.733023,10.4627 118.733023,10.6558393 L118.733023,20.4013305 C118.733023,20.5935757 118.555411,20.7670435 118.357657,20.7670435 M118.357657,8.37929832 L118.238639,8.37929832 C118.040885,8.37929832 117.863273,8.22460798 117.863273,8.011797 L117.863273,6.58381742 C117.863273,6.39157221 118.040885,6.21810443 118.238639,6.21810443 L118.357657,6.21810443 C118.555411,6.21810443 118.733023,6.39157221 118.733023,6.58381742 L118.733023,8.011797 C118.733023,8.22460798 118.555411,8.37929832 118.357657,8.37929832" id="Fill-20" fill="#030100"></path>
            <path d="M128.205809,20.6517858 L128.068242,20.6517858 C127.871458,20.6517858 127.713849,20.478318 127.713849,20.2851786 L127.713849,13.8784951 C127.713849,11.6788521 126.534969,10.9456378 125.060001,10.9456378 C124.056951,10.9456378 122.936377,11.2729018 121.953369,11.7360786 L121.953369,20.2851786 C121.953369,20.478318 121.776628,20.6517858 121.579844,20.6517858 L121.461409,20.6517858 C121.264626,20.6517858 121.088796,20.478318 121.088796,20.2851786 L121.088796,10.6747062 C121.088796,10.4618952 121.225451,10.2884274 121.442278,10.2884274 L121.599887,10.2884274 C121.815802,10.2884274 121.953369,10.4618952 121.953369,10.6747062 L121.953369,10.9831927 C122.975551,10.5003443 124.096125,10.1927519 125.119219,10.1927519 C127.006885,10.1927519 128.579333,11.1960037 128.579333,13.8784951 L128.579333,20.2851786 C128.579333,20.478318 128.422635,20.6517858 128.205809,20.6517858" id="Fill-22" fill="#030100"></path>
            <path d="M136.721444,15.1906804 L135.207302,15.1906804 C132.239147,15.1906804 131.216054,15.7692044 131.216054,17.4091008 L131.216054,17.6603608 C131.216054,19.4558417 132.179019,20.0155883 133.359721,20.0155883 C134.460253,20.0155883 135.404086,19.724985 136.721444,19.0311139 L136.721444,15.1906804 Z M137.19336,20.6513387 L137.094969,20.6513387 C136.878142,20.6513387 136.701401,20.4778709 136.701401,20.2659541 L136.701401,19.7831057 C135.737525,20.3044032 134.577776,20.7666858 133.359721,20.7666858 C131.884754,20.7666858 130.35148,20.0728147 130.35148,17.6603608 L130.35148,17.4091008 C130.35148,15.4222689 131.628753,14.4377945 135.207302,14.4377945 L136.721444,14.4377945 L136.721444,13.7430292 C136.721444,11.7365257 136.151135,10.9451907 134.243426,10.9451907 C132.946111,10.9451907 132.375802,11.0220888 131.452012,11.1186585 C131.255228,11.1383301 131.000138,11.1186585 131.000138,10.8298436 L131.000138,10.7127082 C131.000138,10.4623423 131.157747,10.4051158 131.452012,10.3657726 C132.278321,10.2700971 132.946111,10.1923048 134.243426,10.1923048 C136.898185,10.1923048 137.586017,11.6587334 137.586017,13.7430292 L137.586017,20.2659541 C137.586017,20.4778709 137.409276,20.6513387 137.19336,20.6513387 L137.19336,20.6513387 Z" id="Fill-24" fill="#030100"></path>
            <path d="M146.868745,20.6517858 L146.731178,20.6517858 C146.534394,20.6517858 146.376785,20.478318 146.376785,20.2851786 L146.376785,13.8784951 C146.376785,11.6788521 145.197905,10.9456378 143.722937,10.9456378 C142.719887,10.9456378 141.599313,11.2729018 140.616305,11.7360786 L140.616305,20.2851786 C140.616305,20.478318 140.439564,20.6517858 140.24278,20.6517858 L140.124345,20.6517858 C139.927562,20.6517858 139.751732,20.478318 139.751732,20.2851786 L139.751732,10.6747062 C139.751732,10.4618952 139.888387,10.2884274 140.105214,10.2884274 L140.262823,10.2884274 C140.478738,10.2884274 140.616305,10.4618952 140.616305,10.6747062 L140.616305,10.9831927 C141.638487,10.5003443 142.759061,10.1927519 143.782155,10.1927519 C145.669821,10.1927519 147.242269,11.1960037 147.242269,13.8784951 L147.242269,20.2851786 C147.242269,20.478318 147.085571,20.6517858 146.868745,20.6517858" id="Fill-26" fill="#030100"></path>
            <path d="M155.383833,20.5932181 C154.557524,20.6897878 153.633733,20.7666858 153.005118,20.7666858 C150.19275,20.7666858 149.111351,18.6260577 149.111351,16.0982567 L149.111351,14.8044017 C149.111351,12.2381516 150.19275,10.1923048 153.005118,10.1923048 C153.633733,10.1923048 154.557524,10.2700971 155.383833,10.3657726 C155.678098,10.4051158 155.757358,10.5007913 155.757358,10.7127082 L155.757358,10.8486211 C155.757358,11.0605379 155.580617,11.1571076 155.344659,11.1186585 C154.419957,11.0033114 153.653776,10.9451907 153.005118,10.9451907 C150.763059,10.9451907 149.976835,12.46974 149.976835,14.8044017 L149.976835,16.0982567 C149.976835,18.4320242 150.763059,20.0155883 153.005118,20.0155883 C153.653776,20.0155883 154.419957,19.9565734 155.344659,19.8412263 C155.580617,19.8027773 155.757358,19.899347 155.757358,20.1112638 L155.757358,20.2462825 C155.757358,20.4590935 155.678098,20.554769 155.383833,20.5932181" id="Fill-28" fill="#030100"></path>
            <g id="Group-32" transform="translate(157.115713, 10.192215)">
                <mask id="mask-4" fill="white">
                    <use xlink:href="#path-3"></use>
                </mask>
                <g id="Clip-31"></g>
                <path d="M7.01953206,4.5933194 C7.01953206,2.16119389 6.19413348,0.752885914 3.97211678,0.752885914 C1.78927462,0.752885914 0.86548416,2.31588422 0.86548416,4.61209684 L0.86548416,4.70866653 L7.01953206,4.70866653 L7.01953206,4.5933194 Z M7.51149148,5.48032989 L0.86548416,5.48032989 L0.86548416,5.88538609 C0.86548416,9.127624 2.45797502,9.82328343 4.42399061,9.82328343 C5.28947477,9.82328343 6.37087446,9.68737053 7.33383946,9.49423115 C7.53062323,9.45578211 7.74653875,9.49423115 7.74653875,9.74549118 L7.74653875,9.88050991 C7.74653875,10.0924267 7.66818966,10.1889964 7.37301401,10.2471171 C6.43009179,10.4393623 5.30860653,10.574381 4.42399061,10.574381 C1.98605839,10.574381 0,9.5326802 0,5.88538609 L0,4.61209684 C0,1.94927707 1.37657533,0 3.97211678,0 C6.68518186,0 7.88501622,1.85360154 7.88501622,4.5933194 L7.88501622,5.1146169 C7.88501622,5.32653371 7.70736421,5.48032989 7.51149148,5.48032989 L7.51149148,5.48032989 Z" id="Fill-30" fill="#030100" mask="url(#mask-4)"></path>
            </g>
        </g>
    </g>
</svg>