<svg xmlns="http://www.w3.org/2000/svg" viewBox="0 0 144.67 35.75"><defs><style>.cls-1{fill:#eb0029;}.cls-2{fill:#fff;}.cls-3{fill:#333e48;}</style></defs><title>logo_athomeluFichier 1</title><g id="Calque_2" data-name="Calque 2"><g id="Calque_1-2" data-name="Calque 1"><path class="cls-1" d="M35.75,17.87A17.87,17.87,0,1,1,17.87,0,17.9,17.9,0,0,1,35.75,17.87"/><path class="cls-2" d="M11.89,26.21a3.13,3.13,0,0,1-3.13-3.13V15a1.2,1.2,0,0,1,.43-.92l7.9-6.72a1.21,1.21,0,0,1,1.56,0l7.9,6.72A1.2,1.2,0,0,1,27,15v8.1a3.13,3.13,0,0,1-3.13,3.13Zm-.72-10.67v7.54a.72.72,0,0,0,.72.72h12a.72.72,0,0,0,.72-.72V15.54l-6.7-5.7Z"/><path class="cls-3" d="M52.61,24.23H50.69a.45.45,0,0,1-.45-.45v-.36a6.13,6.13,0,0,1-3.19,1c-1.88,0-3.92-.72-3.92-3.78v-.09c0-2.58,1.58-3.91,5.52-3.91h1.43v-1c0-1.47-.66-1.83-2-1.83A35.66,35.66,0,0,0,44.4,14h-.11c-.23,0-.41-.07-.41-.38V12.14c0-.25.14-.41.43-.48a19.53,19.53,0,0,1,3.78-.36c3.21,0,5,1.43,5,4.32v8.15A.45.45,0,0,1,52.61,24.23Zm-2.53-5.61H48.65c-2.06,0-2.51.66-2.51,1.92v.09c0,1.11.5,1.4,1.63,1.4a5,5,0,0,0,2.31-.63Z"/><path class="cls-3" d="M61.62,24.25a9.35,9.35,0,0,1-1.54.16c-2.56,0-3.6-.57-3.6-3.6V13.71l-2.13-.32a.49.49,0,0,1-.45-.45v-1a.45.45,0,0,1,.45-.45h2.13V9.61a.49.49,0,0,1,.45-.45L59,8.79h.09a.33.33,0,0,1,.36.34v2.33h2a.45.45,0,0,1,.45.45v1.34a.45.45,0,0,1-.45.45h-2v7.11c0,1.13.07,1.27.88,1.27h1.2c.29,0,.48.11.48.34v1.43C62,24.07,61.91,24.21,61.62,24.25Z"/><path class="cls-3" d="M76.12,24.23H73.88a.45.45,0,0,1-.45-.45V16.85H67v6.92a.45.45,0,0,1-.45.45H64.31a.45.45,0,0,1-.45-.45V7.84a.44.44,0,0,1,.45-.43h2.24a.43.43,0,0,1,.45.43v6.25h6.43V7.84a.44.44,0,0,1,.45-.43h2.24a.43.43,0,0,1,.45.43V23.78A.45.45,0,0,1,76.12,24.23Z"/><path class="cls-3" d="M84.32,24.41c-3.55,0-5.41-2.4-5.41-5.63V16.94c0-3.24,1.86-5.63,5.41-5.63s5.41,2.4,5.41,5.63v1.83C89.73,22,87.87,24.41,84.32,24.41Zm2.42-7.47c0-1.86-.84-3.06-2.42-3.06s-2.42,1.2-2.42,3.06v1.83c0,1.86.84,3.06,2.42,3.06s2.42-1.2,2.42-3.06Z"/><path class="cls-3" d="M107.63,24.23h-2.08a.47.47,0,0,1-.45-.48V16.06c0-1.74-.36-2.2-1.63-2.2a4.94,4.94,0,0,0-2.1.57,12.4,12.4,0,0,1,.09,1.63v7.69a.47.47,0,0,1-.45.48H98.91a.47.47,0,0,1-.45-.48V16.06c0-1.74-.29-2.2-1.56-2.2a5,5,0,0,0-2.08.75v9.14a.47.47,0,0,1-.45.48H92.28a.47.47,0,0,1-.45-.48V11.92a.45.45,0,0,1,.45-.45h2a.45.45,0,0,1,.45.45v.48a5.66,5.66,0,0,1,3.24-1.09,3.21,3.21,0,0,1,2.65,1,7.07,7.07,0,0,1,3.73-1c3.08,0,3.76,2.1,3.76,4.75v7.69A.47.47,0,0,1,107.63,24.23Z"/><path class="cls-3" d="M120.55,18.89h-7.38V19a2.55,2.55,0,0,0,2.72,2.87c1.65,0,3.21-.14,4.16-.23h.07c.23,0,.41.11.41.34v1.49c0,.36-.07.52-.48.59a20.12,20.12,0,0,1-4.39.38c-2.26,0-5.48-1.22-5.48-5.68V17.05c0-3.53,2-5.75,5.43-5.75S121,13.68,121,17.05v1.27C121,18.68,120.87,18.89,120.55,18.89ZM118,16.67c0-1.77-1-2.78-2.38-2.78s-2.42,1-2.42,2.78v.09H118Z"/><path class="cls-3" d="M125.57,24.23h-2a.45.45,0,0,1-.45-.45V21.22a.43.43,0,0,1,.45-.43h2a.44.44,0,0,1,.45.43v2.56A.45.45,0,0,1,125.57,24.23Z"/><path class="cls-3" d="M131.18,24.23h-2.1a.47.47,0,0,1-.45-.48V7.46a.45.45,0,0,1,.45-.45h2.1a.43.43,0,0,1,.43.45V23.75A.46.46,0,0,1,131.18,24.23Z"/><path class="cls-3" d="M144.22,24.23h-2.08a.45.45,0,0,1-.45-.45v-.52a5.84,5.84,0,0,1-3.55,1.13,3.85,3.85,0,0,1-2.78-1c-.84-.84-1.13-2.24-1.13-4.12V11.94a.47.47,0,0,1,.45-.48h2.08a.47.47,0,0,1,.45.48v7.38c0,1.13.09,1.79.52,2.17a2,2,0,0,0,1.4.41,6.39,6.39,0,0,0,2.56-.91V11.94a.47.47,0,0,1,.45-.48h2.08a.47.47,0,0,1,.45.48V23.78A.45.45,0,0,1,144.22,24.23Z"/></g></g></svg>